HIERARCHY
ROOT joint_Root
{
	OFFSET 0.0 0.0 0.0
	CHANNELS 6 Xposition Yposition Zposition Zrotation Xrotation Yrotation 
	JOINT Hips
	{
		OFFSET 4.5925 91.4895 -427.239
		CHANNELS 6 Xposition Yposition Zposition Zrotation Xrotation Yrotation 
		JOINT Spine
		{
			OFFSET 15.7357 0.0 0.0
			CHANNELS 6 Xposition Yposition Zposition Zrotation Xrotation Yrotation 
			JOINT Chest
			{
				OFFSET 8.98455 -0.406207 0.0
				CHANNELS 6 Xposition Yposition Zposition Zrotation Xrotation Yrotation 
				JOINT Neck
				{
					OFFSET 16.3773 0.0 0.0
					CHANNELS 6 Xposition Yposition Zposition Zrotation Xrotation Yrotation 
					JOINT Head
					{
						OFFSET 6.45672 0.0 0.0
						CHANNELS 6 Xposition Yposition Zposition Zrotation Xrotation Yrotation 
						End Site
						{
							OFFSET 0.0 0.0 0.0
						}
					}
				}
				JOINT Shoulder_L
				{
					OFFSET 12.9942 -0.242716 4.98039
					CHANNELS 6 Xposition Yposition Zposition Zrotation Xrotation Yrotation 
					JOINT UpperArm_L
					{
						OFFSET 5.34809 0.0 0.0
						CHANNELS 6 Xposition Yposition Zposition Zrotation Xrotation Yrotation 
						JOINT LowerArm_L
						{
							OFFSET 24.3286 1.87007e-05 0.0
							CHANNELS 6 Xposition Yposition Zposition Zrotation Xrotation Yrotation 
							JOINT Hand_L
							{
								OFFSET 22.2916 0.0 0.0
								CHANNELS 6 Xposition Yposition Zposition Zrotation Xrotation Yrotation 
								End Site
								{
									OFFSET 0.0 0.0 0.0
								}
							}
						}
					}
				}
				JOINT Shoulder_R
				{
					OFFSET 12.9945 -0.242716 -4.98039
					CHANNELS 6 Xposition Yposition Zposition Zrotation Xrotation Yrotation 
					JOINT UpperArm_R
					{
						OFFSET -5.34813 0.0 0.0
						CHANNELS 6 Xposition Yposition Zposition Zrotation Xrotation Yrotation 
						JOINT LowerArm_R
						{
							OFFSET -24.3289 0.000322201 0.0
							CHANNELS 6 Xposition Yposition Zposition Zrotation Xrotation Yrotation 
							JOINT Hand_R
							{
								OFFSET -22.2915 -0.000108084 0.0
								CHANNELS 6 Xposition Yposition Zposition Zrotation Xrotation Yrotation 
								End Site
								{
									OFFSET 0.0 0.0 0.0
								}
							}
						}
					}
				}
			}
		}
		JOINT UpperLeg_L
		{
			OFFSET -2.19248 -6.46944 0.0
			CHANNELS 6 Xposition Yposition Zposition Zrotation Xrotation Yrotation 
			JOINT LowerLeg_L
			{
				OFFSET 39.0811 0.0 -1.23785e-05
				CHANNELS 6 Xposition Yposition Zposition Zrotation Xrotation Yrotation 
				JOINT Foot_L
				{
					OFFSET 40.9854 0.0 -1.26872e-05
					CHANNELS 6 Xposition Yposition Zposition Zrotation Xrotation Yrotation 
					JOINT Toes_L
					{
						OFFSET 11.7543 0.0 0.0
						CHANNELS 6 Xposition Yposition Zposition Zrotation Xrotation Yrotation 
						End Site
						{
							OFFSET 0.0 0.0 0.0
						}
					}
				}
			}
		}
		JOINT UpperLeg_R
		{
			OFFSET -2.19251 6.46944 0.0
			CHANNELS 6 Xposition Yposition Zposition Zrotation Xrotation Yrotation 
			JOINT LowerLeg_R
			{
				OFFSET -39.0811 -0.00228153 -0.0401928
				CHANNELS 6 Xposition Yposition Zposition Zrotation Xrotation Yrotation 
				JOINT Foot_R
				{
					OFFSET -40.9854 0.0 0.0
					CHANNELS 6 Xposition Yposition Zposition Zrotation Xrotation Yrotation 
					JOINT Toes_R
					{
						OFFSET -11.7543 0.0 0.0
						CHANNELS 6 Xposition Yposition Zposition Zrotation Xrotation Yrotation 
						End Site
						{
							OFFSET 0.0 0.0 0.0
						}
					}
				}
			}
		}
	}
}
MOTION
Frames:	5
Frame Time:	0.0333333
0.000000 0.000000 0.000000 0.000000 0.000000 -0.000000 -1.783310 80.485000 -1.401090 88.927700 -1.970060 11.509500 15.735700 0.000005 -0.000001 86.661100 79.940100 -86.899900 8.984550 -0.406207 -0.000000 12.319100 -1.170560 -0.351177 16.377300 -0.000001 -0.000001 -3.709050 -2.002550 0.343310 6.456720 -0.000001 -0.000000 -9.805330 -1.493650 2.816100 12.994200 -0.242716 4.980390 -90.338000 1.113060 -73.105000 5.348090 -0.000007 -0.000001 -65.059300 10.640500 -17.774400 24.328600 0.000019 0.000005 4.697180 14.958700 -17.666800 22.291600 -0.000001 0.000005 10.304200 5.152730 3.865170 12.994500 -0.242716 -4.980390 88.913400 5.968930 -79.662300 -5.348130 -0.000001 -0.000004 -68.623000 7.392970 -17.156700 -24.328900 0.000322 -0.000009 -2.407330 -12.815300 -10.705000 -22.291500 -0.000108 -0.000004 11.555300 5.282730 0.621292 -2.192480 -6.469440 -0.000000 -172.771000 -12.260600 -18.011300 39.081100 -0.000007 -0.000012 -0.437886 0.185184 67.077300 40.985400 -0.000006 -0.000013 1.683650 6.134330 -87.186300 11.754300 -0.000000 0.000003 -0.000420 -0.003443 -16.704300 -2.192510 6.469440 -0.000001 178.738000 11.684400 161.852000 -39.081100 -0.002282 -0.040193 0.098640 -0.040091 67.226400 -40.985400 0.000008 0.000006 8.310710 1.944950 -87.391100 -11.754300 -0.000006 -0.000006 -0.449485 -0.552567 -17.099400
0.000000 0.000000 0.000000 0.000000 0.000000 -0.000000 -1.922890 82.354200 -0.304201 89.169300 -1.442890 11.169100 15.735700 0.000005 -0.000001 85.619300 81.181600 -86.132200 8.984550 -0.406207 -0.000000 9.815330 -1.348090 -0.909407 16.377300 -0.000001 -0.000001 -3.147280 -1.526990 0.487896 6.456720 -0.000001 -0.000000 -9.688260 -1.063980 3.042060 12.994200 -0.242716 4.980390 -89.894300 -0.328870 -72.214000 5.348090 -0.000007 -0.000001 -61.128400 -5.487330 -17.405200 24.328600 0.000019 0.000005 4.523150 20.281600 -12.860200 22.291600 -0.000001 0.000005 5.209540 5.110110 4.853990 12.994500 -0.242716 -4.980390 89.015700 4.937730 -78.709200 -5.348130 -0.000001 -0.000004 -64.931300 -6.999540 -17.070200 -24.328900 0.000322 -0.000009 -0.674345 -8.440660 -4.561510 -22.291500 -0.000108 -0.000004 5.251010 5.166630 3.537370 -2.192480 -6.469440 -0.000000 -173.102000 -11.529500 -14.944000 39.081100 -0.000007 -0.000012 -0.422921 0.227113 61.764800 40.985400 -0.000006 -0.000013 1.205720 6.075210 -85.325300 11.754300 -0.000000 0.000003 -0.000373 -0.003117 -16.692800 -2.192510 6.469440 -0.000001 178.350000 12.055900 164.950000 -39.081100 -0.002282 -0.040193 0.089875 -0.045784 62.159800 -40.985400 0.000008 0.000006 8.134420 2.255540 -85.545200 -11.754300 -0.000006 -0.000006 -0.509372 -0.625804 -17.278100
0.000000 0.000000 0.000000 0.000000 0.000000 -0.000000 -2.042980 84.971500 0.781799 89.270500 -0.801425 10.635800 15.735700 0.000005 -0.000001 84.268800 82.759300 -84.920900 8.984550 -0.406207 -0.000000 6.636810 -1.435170 -1.219640 16.377300 -0.000001 -0.000001 -1.671140 -1.661000 0.548122 6.456720 -0.000001 -0.000000 -8.702640 -1.220390 3.389390 12.994200 -0.242716 4.980390 -89.069900 -2.829780 -71.799600 5.348090 -0.000007 -0.000001 -55.260600 -22.022400 -19.342700 24.328600 0.000019 0.000005 3.036980 19.464500 -9.044080 22.291600 -0.000001 0.000005 11.293700 4.975570 7.775760 12.994500 -0.242716 -4.980390 89.327900 3.058660 -77.595900 -5.348130 -0.000001 -0.000004 -58.602600 -23.180200 -19.569500 -24.328900 0.000322 -0.000009 -0.262744 -8.293530 -1.815840 -22.291500 -0.000108 -0.000004 9.585570 5.113720 4.794390 -2.192480 -6.469440 -0.000000 -173.483000 -10.399400 -10.814400 39.081100 -0.000007 -0.000012 -0.381341 0.279956 53.717200 40.985400 -0.000006 -0.000013 0.525038 5.797480 -82.018400 11.754300 -0.000000 0.000003 -0.000301 -0.002607 -16.674700 -2.192510 6.469440 -0.000001 178.255000 12.067300 169.060000 -39.081100 -0.002282 -0.040193 0.074305 -0.050852 54.417600 -40.985400 0.000008 0.000006 7.530710 2.535340 -82.004500 -11.754300 -0.000006 -0.000006 -0.635269 -0.777806 -17.607600
0.000000 0.000000 0.000000 0.000000 0.000000 -0.000000 -2.130670 87.516700 1.880250 89.454300 -0.343330 9.655390 15.735700 0.000005 -0.000001 82.098000 84.499900 -82.902000 8.984550 -0.406207 -0.000000 3.120820 -1.478130 -1.566080 16.377300 -0.000001 -0.000001 0.275246 -2.014340 0.569043 6.456720 -0.000001 -0.000000 -7.100690 -1.751690 3.824310 12.994200 -0.242716 4.980390 -88.153600 -5.475170 -71.333100 5.348090 -0.000007 -0.000001 -49.214900 -37.820800 -25.397500 24.328600 0.000019 0.000005 1.669700 13.074900 -7.340080 22.291600 -0.000001 0.000005 15.293300 4.896840 9.446300 12.994500 -0.242716 -4.980390 89.762100 1.008650 -76.726500 -5.348130 -0.000001 -0.000004 -52.848600 -38.762800 -26.705000 -24.328900 0.000322 -0.000009 -0.677625 -15.814100 -2.470610 -22.291500 -0.000108 -0.000004 13.371300 5.156930 3.778340 -2.192480 -6.469440 -0.000000 -173.911000 -9.830980 -6.558990 39.081100 -0.000007 -0.000012 -0.318245 0.323072 44.569500 40.985400 -0.000006 -0.000013 -0.020164 5.745810 -78.150400 11.754300 -0.000000 0.000003 -0.000186 -0.001745 -16.643500 -2.192510 6.469440 -0.000001 178.058000 12.360200 173.080000 -39.081100 -0.002282 -0.040193 0.057653 -0.052778 45.862600 -40.985400 0.000008 0.000006 7.067030 3.234180 -77.889700 -11.754300 -0.000006 -0.000006 -0.598734 -0.731755 -18.224400
0.000000 0.000000 0.000000 0.000000 0.000000 -0.000000 -2.094240 89.381400 2.450220 89.383900 -0.123639 7.300060 15.735700 0.000005 -0.000001 77.546100 86.447400 -78.299600 8.984550 -0.406207 -0.000000 -0.837147 -1.475420 -1.517180 16.377300 -0.000001 -0.000001 1.887720 -2.161960 0.528532 6.456720 -0.000001 -0.000000 -5.537440 -2.334050 3.928350 12.994200 -0.242716 4.980390 -87.242400 -8.140460 -71.212100 5.348090 -0.000007 -0.000001 -43.001000 -49.136800 -33.369000 24.328600 0.000019 0.000005 0.905454 5.794780 -8.945740 22.291600 -0.000001 0.000005 13.959100 5.033780 6.538550 12.994500 -0.242716 -4.980390 90.468100 -1.993270 -76.778300 -5.348130 -0.000001 -0.000004 -49.163600 -50.352100 -37.656600 -24.328900 0.000322 -0.000009 -2.807500 -26.257100 -6.306620 -22.291500 -0.000108 -0.000004 11.102300 5.241950 1.617070 -2.192480 -6.469440 -0.000000 -174.376000 -9.738430 -4.766080 39.081100 -0.000007 -0.000012 -0.244924 0.327249 36.812900 40.985400 -0.000006 -0.000013 -0.400347 5.603460 -74.584600 11.754300 -0.000000 0.000003 -0.000101 -0.001037 -16.617300 -2.192510 6.469440 -0.000001 178.241000 13.363500 174.737000 -39.081100 -0.002282 -0.040193 0.041622 -0.048257 38.466800 -40.985400 0.000008 0.000006 6.710780 4.680070 -74.241600 -11.754300 -0.000006 -0.000006 -0.353285 -0.448169 -18.751200
